<?xml version="1.0" encoding="UTF-8"?>
<!DOCTYPE svg PUBLIC "-//W3C//DTD SVG 1.1//EN" "http://www.w3.org/Graphics/SVG/1.1/DTD/svg11.dtd">
<svg version="1.2" width="45.72mm" height="45.72mm" viewBox="0 0 4572 4572" preserveAspectRatio="xMidYMid" fill-rule="evenodd" stroke-width="28.222" stroke-linejoin="round" xmlns="http://www.w3.org/2000/svg" xmlns:ooo="http://xml.openoffice.org/svg/export" xmlns:xlink="http://www.w3.org/1999/xlink" xmlns:presentation="http://sun.com/xmlns/staroffice/presentation" xmlns:smil="http://www.w3.org/2001/SMIL20/" xmlns:anim="urn:oasis:names:tc:opendocument:xmlns:animation:1.0" xml:space="preserve">
 <defs class="ClipPathGroup">
  <clipPath id="presentation_clip_path" clipPathUnits="userSpaceOnUse">
   <rect x="0" y="0" width="4572" height="4572"/>
  </clipPath>
  <clipPath id="presentation_clip_path_shrink" clipPathUnits="userSpaceOnUse">
   <rect x="4" y="4" width="4563" height="4563"/>
  </clipPath>
 </defs>
 <defs class="TextShapeIndex">
  <g ooo:slide="id1" ooo:id-list="id3 id4 id5 id6 id7 id8 id9 id10 id11 id12 id13 id14 id15 id16 id17 id18 id19 id20 id21 id22 id23 id24 id25 id26"/>
 </defs>
 <defs class="EmbeddedBulletChars">
  <g id="bullet-char-template-57356" transform="scale(0.00048828125,-0.00048828125)">
   <path d="M 580,1141 L 1163,571 580,0 -4,571 580,1141 Z"/>
  </g>
  <g id="bullet-char-template-57354" transform="scale(0.00048828125,-0.00048828125)">
   <path d="M 8,1128 L 1137,1128 1137,0 8,0 8,1128 Z"/>
  </g>
  <g id="bullet-char-template-10146" transform="scale(0.00048828125,-0.00048828125)">
   <path d="M 174,0 L 602,739 174,1481 1456,739 174,0 Z M 1358,739 L 309,1346 659,739 1358,739 Z"/>
  </g>
  <g id="bullet-char-template-10132" transform="scale(0.00048828125,-0.00048828125)">
   <path d="M 2015,739 L 1276,0 717,0 1260,543 174,543 174,936 1260,936 717,1481 1274,1481 2015,739 Z"/>
  </g>
  <g id="bullet-char-template-10007" transform="scale(0.00048828125,-0.00048828125)">
   <path d="M 0,-2 C -7,14 -16,27 -25,37 L 356,567 C 262,823 215,952 215,954 215,979 228,992 255,992 264,992 276,990 289,987 310,991 331,999 354,1012 L 381,999 492,748 772,1049 836,1024 860,1049 C 881,1039 901,1025 922,1006 886,937 835,863 770,784 769,783 710,716 594,584 L 774,223 C 774,196 753,168 711,139 L 727,119 C 717,90 699,76 672,76 641,76 570,178 457,381 L 164,-76 C 142,-110 111,-127 72,-127 30,-127 9,-110 8,-76 1,-67 -2,-52 -2,-32 -2,-23 -1,-13 0,-2 Z"/>
  </g>
  <g id="bullet-char-template-10004" transform="scale(0.00048828125,-0.00048828125)">
   <path d="M 285,-33 C 182,-33 111,30 74,156 52,228 41,333 41,471 41,549 55,616 82,672 116,743 169,778 240,778 293,778 328,747 346,684 L 369,508 C 377,444 397,411 428,410 L 1163,1116 C 1174,1127 1196,1133 1229,1133 1271,1133 1292,1118 1292,1087 L 1292,965 C 1292,929 1282,901 1262,881 L 442,47 C 390,-6 338,-33 285,-33 Z"/>
  </g>
  <g id="bullet-char-template-9679" transform="scale(0.00048828125,-0.00048828125)">
   <path d="M 813,0 C 632,0 489,54 383,161 276,268 223,411 223,592 223,773 276,916 383,1023 489,1130 632,1184 813,1184 992,1184 1136,1130 1245,1023 1353,916 1407,772 1407,592 1407,412 1353,268 1245,161 1136,54 992,0 813,0 Z"/>
  </g>
  <g id="bullet-char-template-8226" transform="scale(0.00048828125,-0.00048828125)">
   <path d="M 346,457 C 273,457 209,483 155,535 101,586 74,649 74,723 74,796 101,859 155,911 209,963 273,989 346,989 419,989 480,963 531,910 582,859 608,796 608,723 608,648 583,586 532,535 482,483 420,457 346,457 Z"/>
  </g>
  <g id="bullet-char-template-8211" transform="scale(0.00048828125,-0.00048828125)">
   <path d="M -4,459 L 1135,459 1135,606 -4,606 -4,459 Z"/>
  </g>
  <g id="bullet-char-template-61548" transform="scale(0.00048828125,-0.00048828125)">
   <path d="M 173,740 C 173,903 231,1043 346,1159 462,1274 601,1332 765,1332 928,1332 1067,1274 1183,1159 1299,1043 1357,903 1357,740 1357,577 1299,437 1183,322 1067,206 928,148 765,148 601,148 462,206 346,322 231,437 173,577 173,740 Z"/>
  </g>
 </defs>
 <defs class="TextEmbeddedBitmaps"/>
 <g>
  <g id="id2" class="Master_Slide">
   <g id="bg-id2" class="Background"/>
   <g id="bo-id2" class="BackgroundObjects"/>
  </g>
 </g>
 <g class="SlideGroup">
  <g>
   <g id="container-id1">
    <g id="id1" class="Slide" clip-path="url(#presentation_clip_path)">
     <g class="Page">
      <g class="com.sun.star.drawing.CustomShape">
       <g id="id3">
        <rect class="BoundingBox" stroke="none" fill="none" x="1379" y="998" width="2578" height="2578"/>
        <path fill="none" stroke="rgb(0,0,0)" stroke-width="35" stroke-linejoin="round" d="M 1397,3557 L 1397,1651 2032,1016 3938,1016 3938,2921 3302,3557 1397,3557 Z"/>
        <path fill="none" stroke="rgb(0,0,0)" stroke-width="35" stroke-linejoin="round" d="M 1397,1651 L 2032,1016 3938,1016 3302,1651 1397,1651 Z"/>
        <path fill="none" stroke="rgb(0,0,0)" stroke-width="35" stroke-linejoin="round" d="M 3302,3557 L 3302,1651 3938,1016 3938,2921 3302,3557 Z"/>
       </g>
      </g>
      <g class="com.sun.star.drawing.CustomShape">
       <g id="id4">
        <rect class="BoundingBox" stroke="none" fill="none" x="1374" y="886" width="665" height="792"/>
        <path fill="none" stroke="rgb(0,0,0)" stroke-width="28" stroke-linejoin="round" d="M 1706,900 L 2024,1663 1388,1663 1706,900 1706,900 Z"/>
       </g>
      </g>
      <g class="com.sun.star.drawing.CustomShape">
       <g id="id5">
        <rect class="BoundingBox" stroke="none" fill="none" x="2657" y="875" width="666" height="792"/>
        <path fill="none" stroke="rgb(0,0,0)" stroke-width="28" stroke-linejoin="round" d="M 2989,889 L 3307,1652 2671,1652 2989,889 2989,889 Z"/>
       </g>
      </g>
      <g class="com.sun.star.drawing.CustomShape">
       <g id="id6">
        <rect class="BoundingBox" stroke="none" fill="none" x="1803" y="2066" width="258" height="258"/>
        <path fill="rgb(0,0,0)" stroke="none" d="M 1931,2067 C 2003,2067 2058,2122 2058,2194 2058,2266 2003,2321 1931,2321 1859,2321 1804,2266 1804,2194 1804,2122 1859,2067 1931,2067 Z M 1804,2067 L 1804,2067 Z M 2059,2322 L 2059,2322 Z"/>
        <path fill="none" stroke="rgb(0,0,0)" d="M 1931,2067 C 2003,2067 2058,2122 2058,2194 2058,2266 2003,2321 1931,2321 1859,2321 1804,2266 1804,2194 1804,2122 1859,2067 1931,2067 Z"/>
        <path fill="none" stroke="rgb(0,0,0)" d="M 1804,2067 L 1804,2067 Z"/>
        <path fill="none" stroke="rgb(0,0,0)" d="M 2059,2322 L 2059,2322 Z"/>
       </g>
      </g>
      <g class="com.sun.star.drawing.CustomShape">
       <g id="id7">
        <rect class="BoundingBox" stroke="none" fill="none" x="2504" y="2067" width="258" height="258"/>
        <path fill="rgb(0,0,0)" stroke="none" d="M 2632,2068 C 2704,2068 2759,2123 2759,2195 2759,2267 2704,2322 2632,2322 2560,2322 2505,2267 2505,2195 2505,2123 2560,2068 2632,2068 Z M 2505,2068 L 2505,2068 Z M 2760,2323 L 2760,2323 Z"/>
        <path fill="none" stroke="rgb(0,0,0)" d="M 2632,2068 C 2704,2068 2759,2123 2759,2195 2759,2267 2704,2322 2632,2322 2560,2322 2505,2267 2505,2195 2505,2123 2560,2068 2632,2068 Z"/>
        <path fill="none" stroke="rgb(0,0,0)" d="M 2505,2068 L 2505,2068 Z"/>
        <path fill="none" stroke="rgb(0,0,0)" d="M 2760,2323 L 2760,2323 Z"/>
       </g>
      </g>
      <g class="com.sun.star.drawing.CustomShape">
       <g id="id8">
        <rect class="BoundingBox" stroke="none" fill="none" x="2213" y="2562" width="175" height="107"/>
        <path fill="rgb(0,0,0)" stroke="none" d="M 2214,2563 L 2386,2563 2300,2667 2214,2563 2214,2563 Z M 2214,2563 L 2214,2563 Z M 2386,2667 L 2386,2667 Z"/>
        <path fill="none" stroke="rgb(52,101,164)" d="M 2214,2563 L 2386,2563 2300,2667 2214,2563 2214,2563 Z"/>
        <path fill="none" stroke="rgb(52,101,164)" d="M 2214,2563 L 2214,2563 Z"/>
        <path fill="none" stroke="rgb(52,101,164)" d="M 2386,2667 L 2386,2667 Z"/>
       </g>
      </g>
      <g class="com.sun.star.drawing.LineShape">
       <g id="id9">
        <rect class="BoundingBox" stroke="none" fill="none" x="2666" y="2004" width="1654" height="511"/>
        <path fill="none" stroke="rgb(0,0,0)" d="M 2667,2513 L 4318,2005"/>
       </g>
      </g>
      <g class="com.sun.star.drawing.LineShape">
       <g id="id10">
        <rect class="BoundingBox" stroke="none" fill="none" x="2666" y="2412" width="1654" height="257"/>
        <path fill="none" stroke="rgb(0,0,0)" d="M 2667,2667 L 4318,2413"/>
       </g>
      </g>
      <g class="com.sun.star.drawing.LineShape">
       <g id="id11">
        <rect class="BoundingBox" stroke="none" fill="none" x="2666" y="2793" width="1654" height="3"/>
        <path fill="none" stroke="rgb(0,0,0)" d="M 2667,2794 L 4318,2794"/>
       </g>
      </g>
      <g class="com.sun.star.drawing.LineShape">
       <g id="id12">
        <rect class="BoundingBox" stroke="none" fill="none" x="266" y="2005" width="1654" height="511"/>
        <path fill="none" stroke="rgb(0,0,0)" d="M 1918,2514 L 267,2006"/>
       </g>
      </g>
      <g class="com.sun.star.drawing.LineShape">
       <g id="id13">
        <rect class="BoundingBox" stroke="none" fill="none" x="266" y="2413" width="1654" height="257"/>
        <path fill="none" stroke="rgb(0,0,0)" d="M 1918,2668 L 267,2414"/>
       </g>
      </g>
      <g class="com.sun.star.drawing.LineShape">
       <g id="id14">
        <rect class="BoundingBox" stroke="none" fill="none" x="266" y="2794" width="1654" height="3"/>
        <path fill="none" stroke="rgb(0,0,0)" d="M 1918,2795 L 267,2795"/>
       </g>
      </g>
      <g class="com.sun.star.drawing.CustomShape">
       <g id="id15">
        <rect class="BoundingBox" stroke="none" fill="none" x="6063" y="10205" width="2578" height="2578"/>
        <path fill="none" stroke="rgb(0,0,0)" stroke-width="35" stroke-linejoin="round" d="M 6081,12764 L 6081,10858 6716,10223 8622,10223 8622,12128 7986,12764 6081,12764 Z"/>
        <path fill="none" stroke="rgb(0,0,0)" stroke-width="35" stroke-linejoin="round" d="M 6081,10858 L 6716,10223 8622,10223 7986,10858 6081,10858 Z"/>
        <path fill="none" stroke="rgb(0,0,0)" stroke-width="35" stroke-linejoin="round" d="M 7986,12764 L 7986,10858 8622,10223 8622,12128 7986,12764 Z"/>
       </g>
      </g>
      <g class="com.sun.star.drawing.CustomShape">
       <g id="id16">
        <rect class="BoundingBox" stroke="none" fill="none" x="6058" y="10093" width="665" height="793"/>
        <path fill="none" stroke="rgb(0,0,0)" stroke-width="28" stroke-linejoin="round" d="M 6390,10107 L 6708,10870 6072,10870 6390,10107 6390,10107 Z"/>
       </g>
      </g>
      <g class="com.sun.star.drawing.CustomShape">
       <g id="id17">
        <rect class="BoundingBox" stroke="none" fill="none" x="7341" y="10082" width="666" height="792"/>
        <path fill="none" stroke="rgb(0,0,0)" stroke-width="28" stroke-linejoin="round" d="M 7673,10096 L 7991,10859 7355,10859 7673,10096 7673,10096 Z"/>
       </g>
      </g>
      <g class="com.sun.star.drawing.CustomShape">
       <g id="id18">
        <rect class="BoundingBox" stroke="none" fill="none" x="6487" y="11273" width="258" height="258"/>
        <path fill="rgb(0,0,0)" stroke="none" d="M 6615,11274 C 6687,11274 6742,11329 6742,11401 6742,11473 6687,11528 6615,11528 6543,11528 6488,11473 6488,11401 6488,11329 6543,11274 6615,11274 Z M 6488,11274 L 6488,11274 Z M 6743,11529 L 6743,11529 Z"/>
        <path fill="none" stroke="rgb(0,0,0)" d="M 6615,11274 C 6687,11274 6742,11329 6742,11401 6742,11473 6687,11528 6615,11528 6543,11528 6488,11473 6488,11401 6488,11329 6543,11274 6615,11274 Z"/>
        <path fill="none" stroke="rgb(0,0,0)" d="M 6488,11274 L 6488,11274 Z"/>
        <path fill="none" stroke="rgb(0,0,0)" d="M 6743,11529 L 6743,11529 Z"/>
       </g>
      </g>
      <g class="com.sun.star.drawing.CustomShape">
       <g id="id19">
        <rect class="BoundingBox" stroke="none" fill="none" x="7188" y="11274" width="258" height="258"/>
        <path fill="rgb(0,0,0)" stroke="none" d="M 7316,11275 C 7388,11275 7443,11330 7443,11402 7443,11474 7388,11529 7316,11529 7244,11529 7189,11474 7189,11402 7189,11330 7244,11275 7316,11275 Z M 7189,11275 L 7189,11275 Z M 7444,11530 L 7444,11530 Z"/>
        <path fill="none" stroke="rgb(0,0,0)" d="M 7316,11275 C 7388,11275 7443,11330 7443,11402 7443,11474 7388,11529 7316,11529 7244,11529 7189,11474 7189,11402 7189,11330 7244,11275 7316,11275 Z"/>
        <path fill="none" stroke="rgb(0,0,0)" d="M 7189,11275 L 7189,11275 Z"/>
        <path fill="none" stroke="rgb(0,0,0)" d="M 7444,11530 L 7444,11530 Z"/>
       </g>
      </g>
      <g class="com.sun.star.drawing.CustomShape">
       <g id="id20">
        <rect class="BoundingBox" stroke="none" fill="none" x="6897" y="11769" width="175" height="107"/>
        <path fill="rgb(0,0,0)" stroke="none" d="M 6898,11770 L 7070,11770 6984,11874 6898,11770 6898,11770 Z M 6898,11770 L 6898,11770 Z M 7070,11874 L 7070,11874 Z"/>
        <path fill="none" stroke="rgb(52,101,164)" d="M 6898,11770 L 7070,11770 6984,11874 6898,11770 6898,11770 Z"/>
        <path fill="none" stroke="rgb(52,101,164)" d="M 6898,11770 L 6898,11770 Z"/>
        <path fill="none" stroke="rgb(52,101,164)" d="M 7070,11874 L 7070,11874 Z"/>
       </g>
      </g>
      <g class="com.sun.star.drawing.LineShape">
       <g id="id21">
        <rect class="BoundingBox" stroke="none" fill="none" x="7350" y="11211" width="1654" height="511"/>
        <path fill="none" stroke="rgb(0,0,0)" d="M 7351,11720 L 9002,11212"/>
       </g>
      </g>
      <g class="com.sun.star.drawing.LineShape">
       <g id="id22">
        <rect class="BoundingBox" stroke="none" fill="none" x="7350" y="11619" width="1654" height="257"/>
        <path fill="none" stroke="rgb(0,0,0)" d="M 7351,11874 L 9002,11620"/>
       </g>
      </g>
      <g class="com.sun.star.drawing.LineShape">
       <g id="id23">
        <rect class="BoundingBox" stroke="none" fill="none" x="7350" y="12000" width="1654" height="3"/>
        <path fill="none" stroke="rgb(0,0,0)" d="M 7351,12001 L 9002,12001"/>
       </g>
      </g>
      <g class="com.sun.star.drawing.LineShape">
       <g id="id24">
        <rect class="BoundingBox" stroke="none" fill="none" x="4950" y="11212" width="1654" height="511"/>
        <path fill="none" stroke="rgb(0,0,0)" d="M 6602,11721 L 4951,11213"/>
       </g>
      </g>
      <g class="com.sun.star.drawing.LineShape">
       <g id="id25">
        <rect class="BoundingBox" stroke="none" fill="none" x="4950" y="11620" width="1654" height="257"/>
        <path fill="none" stroke="rgb(0,0,0)" d="M 6602,11875 L 4951,11621"/>
       </g>
      </g>
      <g class="com.sun.star.drawing.LineShape">
       <g id="id26">
        <rect class="BoundingBox" stroke="none" fill="none" x="4950" y="12001" width="1654" height="3"/>
        <path fill="none" stroke="rgb(0,0,0)" d="M 6602,12002 L 4951,12002"/>
       </g>
      </g>
     </g>
    </g>
   </g>
  </g>
 </g>
</svg>